<?xml version="1.0" encoding="iso-8859-1"?>
<!-- Uploaded to: SVG Repo, www.svgrepo.com, Generator: SVG Repo Mixer Tools -->
<svg fill="#000000" height="800px" width="800px" version="1.1" id="Capa_1" xmlns="http://www.w3.org/2000/svg" xmlns:xlink="http://www.w3.org/1999/xlink" 
	 viewBox="0 0 463 463" xml:space="preserve">
<g>
	<path d="M387.021,344.649c-0.063-0.016-0.125-0.03-0.188-0.044l-26.399-5.884c11.234-39.555,5.858-68.165-0.322-100.998
		c-4.12-21.887-8.745-46.499-9.381-78.724h16.77c4.142,0,7.5-3.357,7.5-7.5s-3.358-7.5-7.5-7.5H359v-8.5
		c0-29.377-10.233-58.049-28.814-80.736c-3.477-4.245-7.218-8.244-11.186-11.984V39.5c0-4.143-3.358-7.5-7.5-7.5
		c-1.472,0-2.842,0.43-4,1.164c-13.413-9.961-28.707-17.264-44.958-21.339C260.885,5.049,254.779,0,247.5,0h-32
		c-7.278,0-13.383,5.048-15.041,11.822c-16.251,4.075-31.544,11.381-44.957,21.343C154.343,32.431,152.973,32,151.5,32
		c-4.142,0-7.5,3.357-7.5,7.5v3.277c-3.944,3.717-7.663,7.693-11.123,11.911C114.255,77.389,104,106.088,104,135.5v8.5h-8.5
		c-4.142,0-7.5,3.357-7.5,7.5s3.358,7.5,7.5,7.5h16.42c-0.636,32.225-5.261,56.837-9.38,78.724
		c-6.184,32.853-11.562,61.479-0.301,101.071l-26.071,5.811c-0.063,0.014-0.125,0.028-0.188,0.044
		C54.795,349.945,40,368.895,40,390.731V439.5c0,12.958,10.542,23.5,23.5,23.5h336c12.958,0,23.5-10.542,23.5-23.5v-48.769
		C423,368.895,408.205,349.945,387.021,344.649z M120,350.204V448h-17v-94.007L120,350.204z M135,346.861l16.006-3.567
		l24.797,49.597c1.452,2.896,2.707,5.397,6.495,6.013c0.401,0.064,0.803,0.097,1.203,0.097c1.956,0,3.853-0.766,5.268-2.162
		c2.578-2.544,5.126-4.881,7.624-7.046C207.075,395.825,219.117,399,231.5,399c12.404,0,24.428-3.172,35.109-9.207
		c2.498,2.164,5.045,4.501,7.622,7.045c1.415,1.396,3.312,2.162,5.268,2.162c0.4,0,0.802-0.032,1.203-0.097
		c3.788-0.615,5.043-3.116,6.495-6.013l24.797-49.597L328,346.861V448H135V346.861z M161.203,203.565
		c1.336,2.065,3.655,3.435,6.297,3.435c4.142,0,7.5-3.357,7.5-7.5v-3.109c3.09-1.742,6.1-3.518,9-5.313v0.422
		c0,4.143,3.358,7.5,7.5,7.5s7.5-3.357,7.5-7.5v-8c0-0.178-0.014-0.352-0.027-0.527c0.175,0.012,0.349,0.027,0.527,0.027
		c4.687,0,8.5,3.813,8.5,8.5v8c0,4.143,3.358,7.5,7.5,7.5s7.5-3.357,7.5-7.5c0-4.687,3.813-8.5,8.5-8.5s8.5,3.813,8.5,8.5
		c0,4.143,3.358,7.5,7.5,7.5s7.5-3.357,7.5-7.5v-8c0-4.687,3.813-8.5,8.5-8.5h0.5v8.5c0,4.143,3.358,7.5,7.5,7.5s7.5-3.357,7.5-7.5
		V183h0.5c4.687,0,8.5,3.813,8.5,8.5v8c0,4.143,3.358,7.5,7.5,7.5s7.5-3.357,7.5-7.5V199h24.204c-6.11,59.15-46.699,105-95.704,105
		c-44.409,0-82.96-37.956-93.616-91.168C145.928,210.303,153.742,207.116,161.203,203.565z M159,49.519
		c11.981-10.096,25.971-17.639,41-22.028V144h-41V49.519z M226.47,159H328v24.5c0,0.176-0.005,0.35-0.005,0.525
		c-0.164-0.011-0.328-0.025-0.495-0.025h-25.734c-3.138-9.29-11.93-16-22.266-16h-16c-8.481,0-15.927,4.517-20.059,11.271
		c-3.502-2.075-7.583-3.271-11.941-3.271s-8.439,1.196-11.941,3.271c-1.938-3.167-4.604-5.839-7.763-7.787
		C218.676,166.021,223.737,161.517,226.47,159z M263,27.493c15.029,4.389,29.019,11.932,41,22.027V144h-41V27.493z M306.483,320.773
		c-15.983,31.986-24.677,49.376-29.199,58.413c-12.864-11.311-24.587-18.251-32.629-22.235l51.8-51.8l7.136,4.757
		C307.149,312.28,308.393,316.951,306.483,320.773z M231.498,367.488c3.729,1.486,11.818,5.12,21.942,12.089
		c-6.893,2.908-14.325,4.423-21.94,4.423c-7.605,0-15.046-1.512-21.944-4.42C219.687,372.604,227.781,368.969,231.498,367.488z
		 M231.5,319c13.338,0,26.136-2.865,38.001-8.108L231.5,348.893l-37.975-37.975C205.433,316.158,218.235,319,231.5,319z
		 M218.345,356.951c-8.042,3.984-19.765,10.925-32.629,22.235c-4.522-9.037-13.216-26.427-29.199-58.413
		c-1.91-3.822-0.667-8.493,2.892-10.865l7.136-4.757L218.345,356.951z M343,350.204l17,3.789V448h-17V350.204z M345.765,335.453
		l-26.858-5.986l0.994-1.988c5.283-10.574,1.849-23.493-7.989-30.051l-11.385-7.59c19.89-19.109,34.308-46.269,39.904-77.392
		c1.542,9.994,3.28,19.24,4.94,28.054C351.474,272.924,356.346,298.877,345.765,335.453z M344,135.5v8.5h-25V64.803
		C335.12,84.733,344,109.806,344,135.5z M215.5,15h32c0.276,0,0.5,0.225,0.5,0.5V144h-33V15.5C215,15.225,215.224,15,215.5,15z
		 M119,135.5c0-25.695,8.88-50.764,25-70.694V144h-25V135.5z M203.313,159c-16.638,13.279-45.236,33.152-75.903,41.253
		c-1.528,0.404-2.824,1.26-3.785,2.388c1.719-13.026,2.997-27.367,3.303-43.641H203.313z M117.281,240.499
		c1.714-9.105,3.514-18.667,5.092-29.043c5.494,31.917,20.058,59.284,40.036,78.425l-11.32,7.547
		c-9.838,6.558-13.272,19.477-7.989,30.051l0.994,1.988l-27.186,6.059C106.299,298.912,111.173,272.945,117.281,240.499z M55,439.5
		v-48.769c0-14.91,10.082-27.853,24.528-31.507L88,357.336V448H63.5C58.813,448,55,444.187,55,439.5z M408,439.5
		c0,4.687-3.813,8.5-8.5,8.5H375v-90.664l8.472,1.888C397.918,362.879,408,375.821,408,390.731V439.5z"/>
	<path d="M195.281,261.48c8.89,6.05,22.091,9.52,36.219,9.52s27.33-3.47,36.219-9.52c3.425-2.33,4.312-6.995,1.981-10.42
		c-2.33-3.423-6.996-4.31-10.42-1.98c-6.368,4.333-16.753,6.92-27.781,6.92s-21.413-2.587-27.781-6.92
		c-3.424-2.331-8.089-1.443-10.42,1.98C190.969,254.485,191.856,259.15,195.281,261.48z"/>
</g>
</svg>