<svg xmlns="http://www.w3.org/2000/svg" height="640" width="640" version="1.1">
	<g transform="translate(0 -412.36)">
		<g>
			<path d="m21.5 1003.9q0-6 9.6-10.8 12.6 0 38.4-10.8 25.2-10.2 27.6-14.4 7.8-0.6 24.6-9.6 16.8-8.4 21-8.4 6-1.8 19.2-10.2 11.4-7.8 18.6-7.8 1.2 0 7.2-4.8 6.6-4.2 7.2-4.2 12-3.6 30.6-24.6 16.8-19.2 19.8-19.2 12.6-6 25.8-18 15.6-14.4 21-18 1.8-0.6 1.8-3.6t1.8-4.8l21.6-21.6q3.6-3.6 3.6-6l-15.6-15.6q-37.2-30-31.2-30-1.2 0-6.6 9.6-6.6 11.4-12.6 15.6-7.2 1.2-24 16.8-9.6 1.8-18.6-3-10.2-5.4-10.2-15 0-5.4 10.8-24 3.6-5.4 8.4-18 4.2-12.6 7.8-18 7.8-7.2 13.2-19.2 4.8-10.8 10.2-14.4-1.8-0.6-3.6-10.2-1.8-8.4-12.6-8.4l-1.8 1.8q-18.6 0-45.6 5.4t-49.8 5.4q-5.4 4.2-5.4 3.6l-5.4 3.6q-6.6-1.2-16.8 3-10.8 4.2-15.6 4.2-13.2 0-20.4-25.2-3.6-13.2-7.8-13.8-3.6-1.2-4.2-7.8 0-6 3.6-7.2 7.2 0 17.4 0.6 10.8 1.2 15 1.2l72-1.8q4.8 0 19.2 1.2 13.2 1.2 22.2 0.6 0-0.6 31.8-3.6 33-2.4 33-16.2 1.8-1.8 2.4-1.8h3.6v-10.8l3.6 1.8 1.2-3.6-1.2-3.6q1.2-9 8.4-42.6 6-27 6-44.4 0-31.8-7.2-40.8l-12.6-9.6q-7.8-5.4-7.8-14.4 0-3.6 2.4-3.6 35.4-0.6 76.8 18 3.6 1.8 10.8 3.6 7.8 1.8 10.2 3 10.2 4.2 10.2 17.4 0-0.6-18 26.4-13.8 35.4-20.4 47.4 1.8 7.8-7.2 21.6 0 9-4.8 23.4-7.2 4.8-7.2 18 0 8.4 14.4 9.6 14.4 1.8 14.4 3 6-1.2 20.4-1.8 10.8-0.6 21-5.4 6.6-2.4 10.8-15.6 3.6-11.4 7.2-11.4 4.2 0 16.2 13.2 12.6 13.8 21.6 13.8h50.4q3-5.4 10.8-3.6 0.6-1.8 18-14.4 25.2-25.2 34.2-25.2 52.8 37.8 52.8 55.8 0 7.2-11.4 15-10.2 6.6-17.4 6.6-24-5.4-45.6-5.4-18.6-1.2-39.6-3.6-16.2-1.8-23.4-1.8-10.8 0-10.8 5.4 0 3-25.2 45.6 0 0.6-3.6 6.6-3.6 6.6-3.6 7.8-3-0.6-8.4 12.6-6.6 15-9.6 16.2-21.6 28.8-21.6 36 0 13.8 23.4 21.6 5.4 1.8 12 7.2 4.2 3.6 9 3-0.6-0.6 10.2 4.2 10.2 5.4 13.8 9.6 0.6 0 6.6 3.6 4.8 3.6 6 3.6 3 4.2 7.8 6.6 6 3 10.2 7.8-0.6 1.2 7.2 7.8 9 6.6 9 15 0 44.4-19.8 60-2.4 0-9 6-6.6 5.4-7.2 4.8-16.2-1.2-32.4-14.4-5.4-3.6-19.8-24-13.8-18-14.4-18 1.2 0.6-14.4-19.8-14.4-19.2-33-31.8v-5.4q0.6-2.4-18 10.2-1.8 1.2-13.2 13.8t-13.2 13.8q-4.8 2.4-9.6 7.2 3.6-0.6-21.6 18-0.6-0.6-5.4 3.6-6 5.4-9 5.4-0.6 0-4.8 4.2-4.8 4.8-6 4.8-0.6 1.2-9 4.2-8.4 4.2-9 4.8-1.8 1.8-39.6 19.8-0.6 0-7.2 3.6-6 3.6-7.2 3.6-10.8 5.4-19.8 5.4-3.6 7.2-18 7.2-0.6 0-10.8 5.4-9.6 5.4-10.8 5.4-6.6 0-16.2 4.2-9 4.8-12.6 4.8-7.8 2.4-24 6-14.4 3.6-22.8 6.6-19.2 7.2-27.6 7.2-7.2 0-7.2-5.4zm262.2-256.84q-1.8-3.6 18 9.6 3.6 0 12.6 4.2 8.4 4.2 16.2 4.2 1.8 0 5.4 3t9 3q8.4 0 22.8-38.4 20.4-51 20.4-59.4 0-6.6-3.6-9h-61.2l-7.2-1.8q-7.8-1.8-10.2 13.2-2.4 14.4-4.2 13.8 0 15.6-9.6 31.8-9 15-8.4 25.8zm-72.6 39.6q-1.8 0-1.8 2.4t1.8 2.4q1.2 0 1.2-2.4t-1.2-2.4zm-25.2-120.6q-1.8 0-1.8 1.8t1.8 1.8q1.2 0 1.2-1.8t-1.2-1.8zm-36 287.4q-1.8 0-1.8 1.8t1.8 1.8q1.2 0 1.2-1.8t-1.2-1.8zm286.8-60q-1.2 0-1.2 2.4 0 1.2 1.2 1.2t1.2-1.2q0-2.4-1.2-2.4zm-153-136.8q-1.8 0-1.8 2.4 0 1.2 1.8 1.2 0.6 0 0.6-1.2 0-2.4-0.6-2.4zm138.6-25.2q-1.2 0-1.2 2.4 0 1.2 1.2 1.2t1.2-1.2q0-2.4-1.2-2.4zm12.6-13.2q-1.8 0-1.8 2.4 0 1.2 1.8 1.2 1.2 0 1.2-1.2 0-2.4-1.2-2.4zm-108-129.6q-1.8 0-1.8 2.4 0 1.2 1.8 1.2 0.6 0 0.6-1.2 0-2.4-0.6-2.4zm-75.6 82.8q-1.8 0-1.8 2.4 0 1.2 1.8 1.2 0.6 0 0.6-1.2 0-2.4-0.6-2.4zm120 106.8q0 3.6 2.4 3.6v-3.6h-2.4zm197.4-130.2q-1.2 0-1.2 1.8t1.2 1.8q0.6 0 0.6-1.8t-0.6-1.8zm-361.2 135q0-0.6-1.2-0.6-0.6 0-0.6 0.6 0 1.8 0.6 1.8 1.2 0 1.2-1.8zm65.4-55.2q-1.8 0-1.8 0.6t1.8 0.6q0.6 0 0.6-0.6t-0.6-0.6zm181.8 122.4q0-0.6-1.2-0.6-0.6 0-0.6 0.6 0 1.2 0.6 1.2 1.2 0 1.2-1.2zm-216.6-180.6q0-0.6-1.2-0.6-0.6 0-0.6 0.6 0 1.2 0.6 1.2 1.2 0 1.2-1.2zm205.8 154.2q-0.6 0-0.6 0.6 0-0.6 0.6-0.6z"/>
		</g>
	</g>
</svg>
